<?xml version="1.0" encoding="UTF-8"?>
<svg xmlns="http://www.w3.org/2000/svg" xmlns:xlink="http://www.w3.org/1999/xlink" width="13pt" height="14pt" viewBox="0 0 13 14" version="1.1">
<g id="surface1">
<path style=" stroke:none;fill-rule:nonzero;fill:rgb(0%,0%,0%);fill-opacity:1;" d="M 12.070312 0.875 L 0.925781 0.875 C 0.414062 0.875 0 1.273438 0 1.757812 L 0 12.242188 C 0 12.726562 0.414062 13.125 0.925781 13.125 L 12.070312 13.125 C 12.582031 13.125 13 12.726562 13 12.242188 L 13 1.757812 C 13 1.273438 12.582031 0.875 12.070312 0.875 Z M 3.929688 11.375 L 2.003906 11.375 L 2.003906 5.527344 L 3.933594 5.527344 L 3.933594 11.375 Z M 2.964844 4.730469 C 2.347656 4.730469 1.847656 4.257812 1.847656 3.679688 C 1.847656 3.097656 2.347656 2.625 2.964844 2.625 C 3.582031 2.625 4.082031 3.097656 4.082031 3.679688 C 4.082031 4.261719 3.582031 4.730469 2.964844 4.730469 Z M 11.152344 11.375 L 9.226562 11.375 L 9.226562 8.53125 C 9.226562 7.851562 9.210938 6.980469 8.222656 6.980469 C 7.21875 6.980469 7.066406 7.71875 7.066406 8.480469 L 7.066406 11.375 L 5.140625 11.375 L 5.140625 5.527344 L 6.988281 5.527344 L 6.988281 6.328125 L 7.011719 6.328125 C 7.273438 5.867188 7.902344 5.382812 8.839844 5.382812 C 10.789062 5.382812 11.152344 6.59375 11.152344 8.171875 Z M 11.152344 11.375 "/>
</g>
</svg>
